<svg xmlns="http://www.w3.org/2000/svg" viewBox="0 0 69.22 97.31"><defs><style>.cls-1,.cls-2,.cls-3,.cls-5{fill:#fff;}.cls-1,.cls-3,.cls-4,.cls-5{stroke:#fff;}.cls-1{stroke-miterlimit:10;}.cls-3,.cls-4{stroke-width:2px;}.cls-4{fill:none;}.cls-5{stroke-linejoin:round;stroke-width:2.2px;}</style></defs><g id="Layer_2" data-name="Layer 2"><g id="Layer_1-2" data-name="Layer 1"><g id="Layer_2-2" data-name="Layer 2"><path class="cls-1" d="M24,45.75a6.38,6.38,0,0,1,1.28,2.94c0,1.2.56,7.12.74,8.25s1.95,3.9,1.95,3.9a12.69,12.69,0,0,1,1.38,3.62c.11,1.31,1.17,4.85-1.38,11.23-.46,1.17-3.51,5.31-4.93-7-.46-4.11-2.3-9.53-2.12-10.6a33.06,33.06,0,0,0-.46-5.7,17.53,17.53,0,0,1,.95-5.46A3.32,3.32,0,0,1,23,45.46C23.39,45.32,24,45.75,24,45.75Z"/><path class="cls-1" d="M24.28,34.73s1.21-.14,1.49.64a10.11,10.11,0,0,1,.28,1.77s-1.63,1.63-2.34,2.3-7.26,5.28-7.26,5.28,2.27-2.27,3-3.08,1.91-2.48,2.33-3a17.49,17.49,0,0,0,1.46-2.27C24,34.66,24.28,34.73,24.28,34.73Z"/><path class="cls-1" d="M28.18,35.75A1.87,1.87,0,0,1,29,37.46c0,1.27.14,2.26-1.34,3.5a53.21,53.21,0,0,0-5.78,6.63c-.21.5-.92,3.12-.5,3.9s.57,5.06.57,5.06a49.65,49.65,0,0,1,4.54,5c1,1.59,3.08,5.84,3,6.66s-.7,6.87-2.55,8.61-5.06-6.56-5.06-6.56-2.38-11.55-2.63-12.58a40.89,40.89,0,0,1-.46-6.13c0-1.48,2.09-9.67,3.65-11.44A38.46,38.46,0,0,1,28.18,35.75Z"/><path class="cls-1" d="M28.18,35.75A1.87,1.87,0,0,1,29,37.46c0,1.27.14,2.26-1.34,3.5a53.21,53.21,0,0,0-5.78,6.63c-.21.5-.92,3.12-.5,3.9s.57,5.06.57,5.06a49.65,49.65,0,0,1,4.54,5c1,1.59,3.08,5.84,3,6.66s-.7,6.87-2.55,8.61-5.06-6.56-5.06-6.56-2.38-11.55-2.63-12.58a40.89,40.89,0,0,1-.46-6.13c0-1.48,2.09-9.67,3.65-11.44A38.46,38.46,0,0,1,28.18,35.75Z"/><path class="cls-1" d="M22.54,37.74s-.53.6.08.6,1.63-1,1.63-1a4.63,4.63,0,0,0,.24-2.48C24.1,34.12,22.54,37.74,22.54,37.74Z"/><path class="cls-1" d="M45.54,45.53a6.35,6.35,0,0,0-1.27,2.95c0,1.2-.57,7.12-.75,8.25s-2,3.9-2,3.9a12.9,12.9,0,0,0-1.38,3.61c-.11,1.32-1.17,4.86,1.38,11.24.46,1.17,3.51,5.31,4.93-7,.46-4.11,2.3-9.54,2.12-10.6a34.09,34.09,0,0,1,.46-5.7,17.19,17.19,0,0,0-.95-5.46,3.27,3.27,0,0,0-1.67-1.42A1.62,1.62,0,0,0,45.54,45.53Z"/><path class="cls-1" d="M45.19,34.87s-1.21-.14-1.49.64a10.11,10.11,0,0,0-.28,1.77s1.63,1.63,2.33,2.3S53,44.86,53,44.86s-2.27-2.27-3-3.08-1.91-2.48-2.34-3.05a17.35,17.35,0,0,1-1.45-2.27C45.43,34.8,45.19,34.87,45.19,34.87Z"/><path class="cls-1" d="M41.29,35.93a1.86,1.86,0,0,0-.82,1.7c0,1.28-.14,2.27,1.35,3.51a54.07,54.07,0,0,1,5.78,6.63c.21.49.92,3.12.49,3.89s-.56,5.07-.56,5.07a49.23,49.23,0,0,0-4.54,5c-1,1.6-3.08,5.85-3.05,6.66s.71,6.88,2.55,8.62,5.07-6.56,5.07-6.56,2.38-11.55,2.62-12.58a38.59,38.59,0,0,0,.46-6.13c0-1.49-2.09-9.67-3.65-11.44A35.33,35.33,0,0,0,41.29,35.93Z"/><path class="cls-1" d="M41.54,36.11a6.88,6.88,0,0,1,.39,1.52c0,.46.53.85.53.85L43,38l1.06.25Z"/><path class="cls-1" d="M26.51,61.55a45.16,45.16,0,0,0-4.53-5s-.14-4.32-.57-5.07a1.61,1.61,0,0,1-.14-.81l-.85,1.63.71,3.86a15.68,15.68,0,0,1,1.31,2.55,19.49,19.49,0,0,1-.14,4.08,32.5,32.5,0,0,0,2.83,6.69,14.84,14.84,0,0,1,1.63,7.23,3.88,3.88,0,0,1-.32.36.76.76,0,0,0,.57-.25c1.84-1.74,2.51-7.8,2.55-8.61S27.54,63.11,26.51,61.55Z"/><path class="cls-1" d="M43,61.66a45,45,0,0,1,4.54-5s.14-4.33.56-5.07a1.66,1.66,0,0,0,.14-.82l.85,1.63-.7,3.87a15.48,15.48,0,0,0-1.32,2.55,20,20,0,0,0,.15,4.07,32.81,32.81,0,0,1-2.84,6.7,14.82,14.82,0,0,0-1.63,7.23,2.78,2.78,0,0,0,.32.35.79.79,0,0,1-.57-.24c-1.84-1.74-2.51-7.8-2.55-8.62S41.93,63.25,43,61.66Z"/><circle class="cls-2" cx="64.5" cy="51.13" r="3.72"/><circle class="cls-2" cx="49.55" cy="51.13" r="3.72"/><circle class="cls-2" cx="34.63" cy="51.13" r="3.72"/><circle class="cls-2" cx="4.72" cy="51.13" r="3.72"/><circle class="cls-2" cx="19.67" cy="51.13" r="3.72"/><circle class="cls-2" cx="34.63" cy="17.51" r="3.72"/><circle class="cls-2" cx="43.95" cy="84.76" r="3.72"/><circle class="cls-2" cx="25.27" cy="84.76" r="3.72"/><circle class="cls-3" cx="64.5" cy="51.13" r="3.72"/><circle class="cls-3" cx="49.55" cy="51.13" r="3.72"/><circle class="cls-3" cx="34.63" cy="51.13" r="3.72"/><circle class="cls-3" cx="4.72" cy="51.13" r="3.72"/><circle class="cls-3" cx="19.67" cy="51.13" r="3.72"/><circle class="cls-3" cx="34.63" cy="17.51" r="3.72"/><circle class="cls-3" cx="43.95" cy="84.76" r="3.72"/><circle class="cls-3" cx="25.27" cy="84.76" r="3.72"/><circle class="cls-4" cx="64.5" cy="51.13" r="3.72"/><circle class="cls-4" cx="49.55" cy="51.13" r="3.72"/><circle class="cls-4" cx="34.63" cy="51.13" r="3.72"/><circle class="cls-4" cx="4.72" cy="51.13" r="3.72"/><circle class="cls-4" cx="19.67" cy="51.13" r="3.72"/><circle class="cls-4" cx="34.63" cy="17.51" r="3.72"/><circle class="cls-4" cx="43.95" cy="84.76" r="3.72"/><circle class="cls-4" cx="25.27" cy="84.76" r="3.72"/><path class="cls-3" d="M25.27,81l-5.6-26.15"/><path class="cls-3" d="M44,81l5.6-26.15"/><path class="cls-3" d="M44,81,4.72,54.85"/><path class="cls-3" d="M44,81,19.67,54.85"/><path class="cls-3" d="M25.27,81l9.36-26.15"/><path class="cls-3" d="M44,81,34.59,54.85"/><path class="cls-3" d="M25.27,81,49.55,54.85"/><path class="cls-3" d="M25.27,81,64.5,54.85"/><path class="cls-3" d="M44,81,64.5,54.85"/><path class="cls-3" d="M4.72,47.38,34.63,21.23"/><path class="cls-3" d="M19.67,47.38l15-26.15"/><path class="cls-3" d="M34.63,47.38V21.23"/><path class="cls-3" d="M49.55,47.38,34.63,21.23"/><path class="cls-3" d="M64.5,47.38,34.63,21.23"/><path class="cls-5" d="M33,5.6l1.67-4.5,1.66,4.5A2.87,2.87,0,0,0,33,5.6Z"/><path class="cls-5" d="M42.42,96.21l1.67-4.5,1.66,4.5A2.87,2.87,0,0,0,42.42,96.21Z"/><path class="cls-5" d="M23.5,96.21l1.67-4.5,1.66,4.5A2.87,2.87,0,0,0,23.5,96.21Z"/><path class="cls-3" d="M25.27,81,4.72,54.85"/><path class="cls-1" d="M27.26,38.87s.46,1.92-.14,2.48-1.92,1.53-1.92,1.53l-1,1.31S19,48.41,18.29,48.65s0,2.84,0,2.84-.25,4-.6,6-2.41,10.91-2.41,10.91a51.77,51.77,0,0,0-1.74-6.8c-.67-1.85-1.73-2.41-1.63-3.9a8.25,8.25,0,0,1,1.63-3.93l.39-7.3a2.12,2.12,0,0,1,1.46-1.53c1.13-.21,7.93-5.24,7.93-5.24l3.23-1.92Z"/><path class="cls-1" d="M26.48,37.81s-.92.78-.85,1.45-2.24,1.38-2.24,1.38-.53-.6-.14-.92S26.48,37.81,26.48,37.81Z"/><path class="cls-1" d="M27.93,36a6.88,6.88,0,0,0-.39,1.52c0,.46-.53.85-.53.85l-.53-.53-1.07.25Z"/><path class="cls-1" d="M17.26,49.75s-1.06,1.17-.78,2.09-.14,4.79-.14,4.79L16,63.54l-.71,3.86.86,8.86s5.77,6.3,10.63.46a14.44,14.44,0,0,0-1.63-7.23,32.41,32.41,0,0,1-2.84-6.7,19.39,19.39,0,0,0,.14-4.07,15.68,15.68,0,0,0-1.31-2.55l-.71-3.87,1.38-2.69.08-2,1.52-2s1.17-2.76.71-3.54a5.73,5.73,0,0,0-1.45-1.46s-1.32-.07-1.71,2.7Z"/><path class="cls-1" d="M22.65,40.57s-.6.46-.53.93A11.51,11.51,0,0,1,21,44.19a10.52,10.52,0,0,1,.39-2.62A2.29,2.29,0,0,1,22.65,40.57Z"/><path class="cls-1" d="M42.21,39.05s-.46,1.91.14,2.48,1.92,1.52,1.92,1.52l1,1.32s5.17,4.21,5.92,4.46,0,2.83,0,2.83.24,4,.6,6,2.41,10.92,2.41,10.92a53.21,53.21,0,0,1,1.73-6.81c.68-1.84,1.74-2.41,1.63-3.89a8.2,8.2,0,0,0-1.63-3.94l-.39-7.3a2.1,2.1,0,0,0-1.45-1.52c-1.17-.25-7.94-5.24-7.94-5.24L42.92,38Z"/><path class="cls-1" d="M52.2,49.89S53.27,51.06,53,52s.14,4.79.14,4.79l.39,6.91.71,3.86-.85,8.86s-5.77,6.31-10.63.46a14.32,14.32,0,0,1,1.63-7.23,32.81,32.81,0,0,0,2.84-6.7,20,20,0,0,1-.15-4.07,15.48,15.48,0,0,1,1.32-2.55l.7-3.87L47.7,49.75l-.07-2-1.52-2S44.94,43,45.4,42.24a5.61,5.61,0,0,1,1.45-1.45s1.31-.07,1.7,2.69Z"/><path class="cls-1" d="M46.92,37.88s.53.6-.07.6-1.63-1-1.63-1A4.7,4.7,0,0,1,45,35C45.36,34.27,46.92,37.88,46.92,37.88Z"/><path class="cls-1" d="M43,38s.92.78.85,1.45,2.23,1.39,2.23,1.39.53-.61.14-.92S43,38,43,38Z"/><path class="cls-1" d="M46.82,40.72s.6.46.53.92a11.51,11.51,0,0,0,1.17,2.69,10.58,10.58,0,0,0-.39-2.62A2.32,2.32,0,0,0,46.82,40.72Z"/></g></g></g></svg>