<svg xmlns="http://www.w3.org/2000/svg" viewBox="0 0 67.22 58.61"><defs><style>.cls-1{fill:#fff;}</style></defs><g id="Layer_2" data-name="Layer 2"><g id="Layer_1-2" data-name="Layer 1"><path class="cls-1" d="M67.06,13.79a5,5,0,0,0-3.17-3.42h0l-7-2.31A14,14,0,0,0,49,7.78L44.34,9,25.31.54A6.43,6.43,0,0,0,21.14.2L17,1.28a2.6,2.6,0,0,0-1,4.53l9.62,8-11,2.82a3.73,3.73,0,0,1-3.56-1L6.43,11A2.6,2.6,0,0,0,4,10.25L1,11a1.34,1.34,0,0,0-1,1.62L2.93,24a6.39,6.39,0,0,0,5,4.7l8.59,1.68a14,14,0,0,0,2.67.26,14.24,14.24,0,0,0,3.45-.43l6.74-1.72L24.79,41a2.61,2.61,0,0,0,2.45,3.49,2.3,2.3,0,0,0,.64-.09l4.19-1.07a6.45,6.45,0,0,0,3.58-2.41L48.32,23.6l15.24-3.88a4.84,4.84,0,0,0,3.5-5.93Zm-49.29-10,4-1a3.89,3.89,0,0,1,2.43.2l15.93,7L28.78,12.93ZM33.48,39.27a3.76,3.76,0,0,1-2.08,1.41l-4.06,1,5.15-14.09,11.73-3ZM64.23,16.11a2.21,2.21,0,0,1-1.35,1L22,27.56A11.44,11.44,0,0,1,17,27.7L8.41,26A3.72,3.72,0,0,1,5.52,23.3L3,13.26l1.59-.4,4.53,4.59a6.47,6.47,0,0,0,6.13,1.71l34.44-8.8a11.23,11.23,0,0,1,6.32.22l7,2.31a2.29,2.29,0,0,1,1.44,1.56,2,2,0,0,1-.22,1.66Z"/><path class="cls-1" d="M58.77,55.94H8.3a1.34,1.34,0,0,0,0,2.67H58.77a1.34,1.34,0,1,0,0-2.67Z"/></g></g></svg>