<svg xmlns="http://www.w3.org/2000/svg" viewBox="0 0 67.22 63.23"><defs><style>.cls-1{fill:#fff;}</style></defs><g id="Layer_2" data-name="Layer 2"><g id="Layer_1-2" data-name="Layer 1"><path class="cls-1" d="M58.45,19.52a4.52,4.52,0,1,0-.15-2.32,30.29,30.29,0,0,0-14,5.8c-2.08-1.45-4.15-3-6.25-4.6s-4.27-3.22-6.45-4.75c1.44-.53,2.87-1.05,4.28-1.59C43.35,9.27,50.5,6.62,58.43,5.88a4.51,4.51,0,0,0,7,2.2,4.5,4.5,0,1,0-7.14-4.52C50.07,4.31,42.76,7,35.09,9.89c-1.92.72-3.87,1.44-5.83,2.14C23.15,7.94,16.6,4.6,9,3.63H9A4.55,4.55,0,1,0,8.81,6c6.51.86,12.26,3.6,17.65,7h0A72.33,72.33,0,0,1,8.85,16.73a4.5,4.5,0,0,0-7-2.28A4.56,4.56,0,0,0,0,18.21a4.52,4.52,0,0,0,6.2,4,4.48,4.48,0,0,0,2.7-3.16,77.36,77.36,0,0,0,20-4.47c2.64,1.81,5.21,3.73,7.76,5.65,1.93,1.45,3.84,2.89,5.73,4.25A71.32,71.32,0,0,0,31.68,36.23h0A61.41,61.41,0,0,0,8.91,30.59a4.5,4.5,0,0,0-6.86-2.71,4.5,4.5,0,0,0-2,3.63A4.5,4.5,0,0,0,6,35.89a4.47,4.47,0,0,0,2.88-3,57.77,57.77,0,0,1,21.38,5.22c-.29.39-.58.78-.89,1.16-1.82,2.43-3.62,4.83-5.47,7h0a64.28,64.28,0,0,0-15-2.23A4.47,4.47,0,0,0,6.14,41,4.52,4.52,0,0,0,2,41.43a4.5,4.5,0,0,0-.15,7.37,4.5,4.5,0,0,0,7-2.39,64.28,64.28,0,0,1,13.31,1.85C18.25,52.56,14,55.93,8.7,57.1h0A4.5,4.5,0,0,0,0,59.19,4.56,4.56,0,0,0,2.3,62.66,4.51,4.51,0,0,0,9,59.45C15.33,58.15,20.2,54.09,24.63,49h0A68,68,0,0,1,34.7,53.25c6,2.91,12.13,5.91,23.62,6.53h0a4.45,4.45,0,1,0,0-2.32c-10.93-.58-16.65-3.36-22.64-6.3a79.08,79.08,0,0,0-9.47-4.09c1.66-2,3.29-4.2,4.93-6.38.4-.54.81-1.07,1.21-1.6l.87.38c6.71,3,13.66,6.1,25,6.73a4.51,4.51,0,1,0,.07-2.32C47.5,43.27,41,40.38,34.22,37.34l-.37-.16A65.61,65.61,0,0,1,44.33,25.84c4.52,3.05,9.08,5.49,13.93,6.46a4.55,4.55,0,0,0,2.47,3.35,4.51,4.51,0,1,0,.9-8.43A4.56,4.56,0,0,0,58.51,30a36.22,36.22,0,0,1-12.2-5.63,28.38,28.38,0,0,1,12.14-4.82Z"/></g></g></svg>