<svg xmlns="http://www.w3.org/2000/svg" viewBox="0 0 67.22 67.22"><defs><style>.cls-1{fill:#fff;}</style></defs><g id="Layer_2" data-name="Layer 2"><g id="Layer_1-2" data-name="Layer 1"><path class="cls-1" d="M65.12,50.41h-8.4V26.26a2.07,2.07,0,0,0-.32-1.1,2,2,0,0,0-.85-.77l-8.4-4.2a2.1,2.1,0,0,0-1.63-.14,2.15,2.15,0,0,0-1.25,1.06,2.13,2.13,0,0,0-.1,1.64A2.1,2.1,0,0,0,45.28,24l7.24,3.62V50.41h-10V42.46a7.78,7.78,0,0,0-7.79-7.79H15.66a7.78,7.78,0,0,0-7.79,7.79v7.95H2.1A2.11,2.11,0,0,0,.61,51,2.09,2.09,0,0,0,0,52.51V65.12a2.15,2.15,0,0,0,.61,1.49,2.13,2.13,0,0,0,1.49.61h63a2.08,2.08,0,0,0,2.1-2.1V52.51a2.1,2.1,0,0,0-2.1-2.1Zm-53-7.95a3.59,3.59,0,0,1,3.6-3.6H34.75a3.6,3.6,0,0,1,3.6,3.6v7.95H12.08ZM63,63H4.2v-8.4H63ZM10.5,14.7A14.72,14.72,0,1,0,14.81,4.31,14.69,14.69,0,0,0,10.5,14.7Zm25.21,0a10.48,10.48,0,1,1-3.07-7.43A10.48,10.48,0,0,1,35.71,14.7Z"/></g></g></svg>